******** Splice .2009.DVDRiP.XViD.AC3(5.1).Eng+Swe_Sub-Zen_Bud ********

Format                           : AVI
File size                        : 1.37 GiB
Duration                         : 1h 43mn
Overall bit rate                 : 1 887 Kbps

Video

Format                           : MPEG-4 Visual
Codec ID/Hint                    : XviD
Duration                         : 1h 43mn
Bit rate                         : 1 429 Kbps
Width                            : 720 pixels
Height                           : 480 pixels
Display aspect ratio             : 16:9
Stream size                      : 1.04 GiB (76%)
Writing library                  : XviD 1.1.2 (UTC 2006-11-01)

Audio

Format                           : AC-3
Duration                         : 1h 43mn
Bit rate                         : 448 Kbps
Channel(s)                       : 6 channels
Channel positions                : Front: L C R, Side: L R, LFE
Sampling rate                    : 48.0 KHz
Bit depth                        : 16 bits
Stream size                      : 333 MiB (24%)
Language                         : English

Text #1
Language                         : English

Text #2
Language                         : Swedish

